<?xml version="1.0" encoding="UTF-8"?>
<svg id="Layer_2" data-name="Layer 2" xmlns="http://www.w3.org/2000/svg" viewBox="0 0 497.47 370.39">
  <defs>
    <style>
      .cls-1 {
        fill: #231f20;
      }

      .cls-2 {
        fill: #fff;
      }
    </style>
  </defs>
  <g id="Layer_1-2" data-name="Layer 1">
    <g>
      <polyline class="cls-2" points="32.23 283.51 41.39 250.86 44.97 236.52 44.97 224.18 48.55 190.34 48.55 177.2 48.55 164.46 42.58 154.5 38.6 151.72 33.82 164.86 32.23 178.39 32.23 188.37 32.23 200.69 33.82 211.84 40.39 219.8 51.34 217.61 55.32 210.25 59.3 200.69 63.68 191.93 67.27 178.79 74.22 159.61 75.63 155.45 75.63 145.74 75.63 139.37 75.63 136.19 75.63 131.01 74.43 148.13 73.64 153.31 72.84 176.4 73.24 191.93 75.63 201.49 75.63 209.45 77.62 219.8 81.6 231.75 86.38 240.51 91.16 242.5 100.32 240.11 102.7 232.15 104.7 222.99 106.69 211.04 106.69 195.91 106.69 179.59 106.69 170.43 106.69 158.48 103.9 147.34 101.51 136.19 98.72 123.45 94.34 108.71 88.37 100.75 78.81 93.98 69.46 91.99 60.9 91.99 52.93 96.77 47.76 100.75 39.79 111.1 29.04 132.6 23.47 149.73 14.31 178.79 10.33 202.28 7.54 225.77 9.53 246.08 9.53 260.41 13.52 271.96 18.69 287.89 27.05 297.05 34.62 302.22 46.17 306.6 67.27 301.43 90.36 285.5 102.31 268.78 115.84 236.92 124.51 218.98 132.96 201.49 145.31 166.45 146.9 149.33 146.9 137.78 141.33 130.61 134.56 129.42 127.39 136.59 123.41 145.35 123.01 152.51 121.02 164.86 121.02 177.2 120.62 186.36 120.62 199.3 121.82 208.65 129.78 229.36 136.15 237.32 140.93 234.93 146.9 230.95 152.08 221 156.06 210.25 161.23 174.72 163.19 142.53 163.62 135.39 163.62 125.84 165.22 157.29 165.22 174.72 165.22 185.96 168.4 202.68 173.58 208.26 179.55 210.64 187.51 205.87 192.69 197.11 196.27 190.34 199.86 178.39 202.64 168.04 202.64 156.89 202.64 108.32 199.06 94.78 205.03 174.72 208.22 210.25 208.22 236.52 208.22 254.84 206.63 265.99 206.63 279.92 205.43 293.06 201.85 310.19 192.69 323.32 184.33 334.87 175.57 338.06 164.82 338.06 158.45 334.47 154.07 323.32 154.86 313.37 158.45 302.22 162.83 284.3 171.59 257.63 189.9 220.6 208.22 188.37 222.15 138.97 223.75 111.1 226.53 84.43 226.53 71.29 227.62 87.27 232.9 165.25 235.88 169.63 230.12 84.03 233.7 76.86 235.88 68.9 240.87 62.53 245.25 59.74 251.22 56.95 261.57 54.96 263.96 60.14 269.14 72.88 271.13 86.02 271.13 97.17 273.91 131.01 275.91 141.36 280.68 146.54 284.67 142.16 284.67 136.19 295.81 54.96 295.81 43.02 295.81 30.28 300.19 9.97 305.77 7.98 313.33 10.77 317.76 19.3 318.91 21.52 318.91 23.91 318.91 32.27 321.69 43.81 321.69 53.37 321.69 70.89 321.69 83.23 318.11 102.34 314.13 114.69 306.56 118.67 300.99 113.49 300.19 107.52 298.2 95.57 298.2 82.83 297.8 70.89 299 51.78 299.4 45.41 300.59 41.42 303.78 27.49 308.56 22.71 313.73 19.92 321.69 37.04 323.69 46.2 323.69 56.16 327.27 67.31 327.27 72.88 325.35 49.81 323.69 29.88 323.69 22.31 327.27 5.99 327.27 2.01 327.27 42.62 327.27 50.58 327.27 58.94 329.66 72.88 329.66 80.84 333.64 88.41 342 90.8 347.18 91.2 349.57 83.63 354.34 74.47 359.12 65.31 368.28 53.77 371.07 47.4 373.85 42.22 379.83 33.46 385.4 33.46 390.18 37.04 390.18 41.82 392.57 50.18 390.18 59.74 386.2 73.28 380.22 83.63 104.3 303.42 77.62 320.94 72.84 328.1 68.46 334.47 62.89 343.63 60.9 352.79 64.48 360.75 68.46 359.16 78.42 354.38 89.17 349.21 126.2 320.54 461.85 85.22 487.33 74.47 489.72 72.88 491.71 70.49"/>
      <path class="cls-1" d="M60.59,370.39l-7.55-16.77,2.78-12.81,6.45-10.58,4.35-6.33,5.6-8.39,27.67-18.17,72.09-57.42,11.24-22.73-3,1.8-10.99-4.4-5.38-5.79-.48,3.31-4.42,11.93-6.28,12.08-7.96,5.31-10.62,5.31-9.14-11.42-2.27,4.7-13.79,32.44-13.19,18.46-25.31,17.45-24.71,6.06-14.56-5.52-9.02-6.17-10.04-11-5.66-17.4-4.37-12.67v-15.22l-2.03-20.75,2.94-24.67,4.07-24,9.31-29.56,5.77-17.72,11.32-22.65,9-11.7,6.67-5.06,9.74-5.85h11.43l11.64,2.48,11.78,8.34,7.48,9.98,4.9,16.56,5.16,23.79,2.98,11.92v2.56l1.36-8.42.46-8.18,5.13-11.28,10.89-10.89,13.46,2.38,8.93,11.48-.03,14.81-1.68,18.04-12.97,36.68-6.33,13.1,2.97,7.73,1.76,2.21,3.01-2.01,4.07-7.83,3.54-9.57,5.02-34.43,2.36-38.79v-9.33l14.99-.38,1.6,31.83v27.96l2.65,13.91,2.56,2.76.95.38,3.14-1.88,4.12-6.97,3.16-5.96,3.34-11.14,2.5-9.29v-24.02l-3.56-47.69,14.73-2.48,3.83,14.48v35.12l.68,9.06,3.89-13.8,1.58-27.4,2.74-26.29v-12.75l8.5-.29,1.51-5.54,6.71-8.57,5.88-3.74,7.26-3.39,17.03-3.28,4.99,10.83,5.51,13.56,2.21,14.58v11.41l1.45,17.6,8.24-60.01v-24.97l5.43-25.17,12.07-4.31,12.84,4.73.85,1.64.26-1.2v-3.17h15v56.3l2.39,13.94v6.75l1.62,3.09,3.13.89.7-2.23,10.19-19.53,9-11.34,2.67-6.03,3.19-5.85,8.21-12.03h12.04l9.78,7.33v7.48l2.65,9.28-2.96,11.8-4.23,14.4-7.13,12.36-170.29,135.64v24.36l242.48-169.99,25.56-10.78.89-.6,1.29-1.55,11.52,9.6-2.69,3.22-3.88,2.59-25.4,10.72-251.38,176.23-.03,12.55-1.23,13.57-3.99,19.04-10.11,14.5-9.71,13.41-12.16,4.42h-14.04l-10.41-5.86-5.99-15.25.76-9.49-16.57,11.61-37.51,29.04-21.89,10.5-10.66,4.26ZM69.95,346.46l-.89,4.1,16.14-7.76,36.69-28.4,31.21-21.88,2.6-10.55,4.4-13.42-51.41,40.95-25.69,16.87-3.99,5.99-4.26,6.2-4.81,7.9ZM166.78,330.56h7.46l5.36-1.95,6.97-9.63,8.24-11.83,3.18-15.2,1.12-12.37v-1.02l-32.8,22.99-.74,2.96-3.32,10.32-.59,7.36,2.77,7.05,2.33,1.31ZM38.11,295.53l8.53,3.24,17.5-4.29,20.88-14.4,10.7-14.98,7.66-18.03-12.78,3.33-9.55-3.98-6.36-11.66-4.35-13.05-2.22-11.54v-7.76l-.43-1.73-1.57,3.13-4.21,10-5.66,10.46-3.79.76v12.41l-3.86,15.44-9.16,32.65-14.44-4.05,9.13-32.55,3.33-13.34v-7.57h0s-10.77-13.05-10.77-13.05l-1.97-13.76v-23.27l1.36-11.6-4.47,14.2-3.86,22.8-2.67,22.5,1.95,20.23v13.08l3.61,10.49,4.68,14.38,6.68,7.32,6.11,4.18ZM178.55,260.47l-6.06,18.45,27.46-19.25.77-5.36v-18.11l-16.77,13.36-5.4,10.91ZM91.7,234.6h0s2.63-.68,2.63-.68l1.09-3.65,1.89-8.69,1.86-11.15v-51.01l-2.62-10.5-2.39-11.15-2.72-12.44-3.92-13.18-4.46-5.95-7.33-5.2-7.07-1.5h-5.69l-5.81,3.49-4.06,3.12-6.93,9-10.18,20.35-4.53,13.9,3.42-9.4,13.3,9.31,7.86,13.11v28.04l.59-1.18,3.57-13.01,5.67-15.63.28-8,.82-5.31,1.17-16.81,14.98.52v25.67l-2.33,6.81-.45,12.94.37,14.48,2.41,9.65v8.17l1.76,9.16,3.61,10.84,3.19,5.86ZM114.19,208.11v3.55l-2.16,12.92-1.19,5.47,6.22-12.88-2.57-6.67-.31-2.39ZM200.72,216.75l-.29.51.29-.23v-.28ZM214.2,193.02l1.11,12.38,23.22-18.5-12.98-19.11-.73-10.69-9.65,34.19-.99,1.73ZM39.73,200.16l.14.98,1.19-11.19v-22.37l-1.32,11.26v21.33ZM128.12,186.52v6.14l9.8-27.83,1.47-15.85v-8.63l-2.22-2.86h-.08s-3.44,3.43-3.44,3.43l-2.84,6.24-.4,6.54-1.9,11.75v12.07s-.4,9-.4,9ZM237.74,85.56l6.51,96.79,34.16-27.21-9.47-10.26-2.5-13.25-2.81-34.46v-10.58l-1.77-11.7-4.65-11.44-3.66.7-4.69,2.19-2.88,1.83-3.27,4.17-1.97,7.22-3,6ZM292.17,136.7v7.48l56.9-45.32-8.39-.65-12.17-3.48-.98-1.86-2.12,11.32-5.07,15.71-14.97,7.88-10.61-9.85-2.58,18.78ZM305.7,94.95l1.92,11.57.37,2.75,2.83-8.78,3.37-17.96v-37.83l-2.79-11.55v-.45l-.71-1.53-.09.09-2.83,12.31-.95,3.16-1.52,24.26.39,11.83v12.12ZM356.52,86.52l-2.71,8.56,20.62-16.43,4.81-8.35,3.69-12.53,1.86-7.46-2.13-7.44v-.28l-2.41,3.53-2.46,4.56-3.05,6.98-9.32,11.75-8.92,17.1Z"/>
    </g>
  </g>
</svg>