<?xml version="1.0" encoding="UTF-8"?>
<svg id="Layer_1" data-name="Layer 1" xmlns="http://www.w3.org/2000/svg" viewBox="0 0 497.47 370.38">
  <defs>
    <style>
      .cls-1 {
        fill: #fff;
        stroke: #231f20;
        stroke-miterlimit: 10;
        stroke-width: 15px;
      }
    </style>
  </efs>
  <polyline class="cls-1" points="32.23 283.51 41.39 250.86 44.97 236.52 44.97 224.18 48.55 190.34 48.55 177.2 48.55 164.46 42.58 154.5 38.6 151.72 33.82 164.85 32.23 178.39 32.23 188.37 32.23 200.69 33.82 211.84 40.39 219.8 51.34 217.61 55.32 210.25 59.3 200.69 63.68 191.93 67.27 178.79 74.22 159.61 75.63 155.45 75.63 145.74 75.63 139.37 75.63 136.19 75.63 131.01 74.44 148.13 73.64 153.31 72.84 176.4 73.24 191.93 75.63 201.49 75.63 209.45 77.62 219.8 81.6 231.75 86.38 240.51 91.16 242.5 100.32 240.11 102.7 232.14 104.7 222.99 106.69 211.04 106.69 195.91 106.69 179.59 106.69 170.43 106.69 158.48 103.9 147.34 101.51 136.19 98.72 123.45 94.34 108.71 88.37 100.75 78.81 93.98 69.46 91.99 60.9 91.99 52.93 96.77 47.76 100.75 39.79 111.1 29.04 132.6 23.47 149.72 14.31 178.79 10.33 202.28 7.54 225.77 9.53 246.08 9.53 260.41 13.52 271.96 18.69 287.89 27.05 297.05 34.62 302.22 46.17 306.6 67.27 301.43 90.36 285.5 102.31 268.78 115.84 236.92 124.52 218.98 132.97 201.49 145.31 166.45 146.9 149.33 146.9 137.78 141.33 130.61 134.56 129.42 127.39 136.59 123.41 145.34 123.01 152.51 121.02 164.85 121.02 177.2 120.62 186.36 120.62 199.3 121.82 208.65 129.78 229.36 136.15 237.32 140.93 234.93 146.9 230.95 152.08 221 156.06 210.25 161.23 174.72 163.19 142.53 163.62 135.39 163.62 125.83 165.22 157.29 165.22 174.72 165.22 185.96 168.4 202.68 173.58 208.25 179.55 210.64 187.51 205.87 192.69 197.11 196.27 190.34 199.86 178.39 202.64 168.04 202.64 156.89 202.64 108.32 199.06 94.78 205.03 174.72 208.22 210.25 208.22 236.52 208.22 254.84 206.63 265.99 206.63 279.92 205.43 293.06 201.85 310.18 192.69 323.32 184.33 334.87 175.57 338.06 164.82 338.06 158.45 334.47 154.07 323.32 154.86 313.37 158.45 302.22 162.83 284.3 171.59 257.63 189.9 220.6 208.22 188.37 222.15 138.97 223.75 111.1 226.53 84.43 226.53 71.29 227.62 87.27 232.9 165.25 235.88 169.63 230.12 84.03 233.7 76.86 235.88 68.9 240.87 62.53 245.25 59.74 251.22 56.95 261.57 54.96 263.96 60.14 269.14 72.88 271.13 86.02 271.13 97.17 273.92 131.01 275.91 141.36 280.68 146.54 284.67 142.16 284.67 136.19 295.81 54.96 295.81 43.02 295.81 30.28 300.19 9.97 305.77 7.98 313.33 10.77 317.76 19.3 318.91 21.52 318.91 23.9 318.91 32.27 321.69 43.81 321.69 53.37 321.69 70.89 321.69 83.23 318.11 102.34 314.13 114.69 306.56 118.67 300.99 113.49 300.19 107.52 298.2 95.57 298.2 82.83 297.81 70.89 299 51.78 299.4 45.41 300.59 41.42 303.78 27.49 308.56 22.71 313.73 19.92 321.69 37.04 323.69 46.2 323.69 56.16 327.27 67.3 327.27 72.88 325.35 49.81 323.69 29.88 323.69 22.31 327.27 5.99 327.27 2.01 327.27 42.62 327.27 50.58 327.27 58.94 329.66 72.88 329.66 80.84 333.64 88.41 342 90.8 347.18 91.19 349.57 83.63 354.34 74.47 359.12 65.31 368.28 53.77 371.07 47.4 373.85 42.22 379.83 33.46 385.4 33.46 390.18 37.04 390.18 41.82 392.57 50.18 390.18 59.74 386.2 73.28 380.23 83.63 104.3 303.42 77.62 320.94 72.84 328.1 68.46 334.47 62.89 343.63 60.9 352.79 64.48 360.75 68.46 359.16 78.42 354.38 89.17 349.2 126.2 320.54 461.85 85.22 487.33 74.47 489.72 72.88 491.71 70.49"/>
</svg>